<?xml version="1.0" encoding="UTF-8" standalone="no"?>
<svg
   xmlns:dc="http://purl.org/dc/elements/1.1/"
   xmlns:cc="http://creativecommons.org/ns#"
   xmlns:rdf="http://www.w3.org/1999/02/22-rdf-syntax-ns#"
   xmlns:svg="http://www.w3.org/2000/svg"
   xmlns="http://www.w3.org/2000/svg"
   xmlns:sodipodi="http://sodipodi.sourceforge.net/DTD/sodipodi-0.dtd"
   xmlns:inkscape="http://www.inkscape.org/namespaces/inkscape"
   inkscape:version="1.0rc1 (09960d6, 2020-04-09)"
   sodipodi:docname="logo.svg"
   id="svg60"
   xml:space="preserve"
   enable-background="new 0 0 346.7 101.2"
   viewBox="0 0 346.7 101.2"
   y="0px"
   x="0px"
   version="1.1"><metadata
   id="metadata66"><rdf:RDF><cc:Work
       rdf:about=""><dc:format>image/svg+xml</dc:format><dc:type
         rdf:resource="http://purl.org/dc/dcmitype/StillImage" /></cc:Work></rdf:RDF></metadata><defs
   id="defs64" /><sodipodi:namedview
   inkscape:current-layer="Layer_1"
   inkscape:window-maximized="0"
   inkscape:window-y="23"
   inkscape:window-x="0"
   inkscape:cy="31.832764"
   inkscape:cx="179.935"
   inkscape:zoom="3.037208"
   showgrid="false"
   id="namedview62"
   inkscape:window-height="597"
   inkscape:window-width="1323"
   inkscape:pageshadow="2"
   inkscape:pageopacity="0"
   guidetolerance="10"
   gridtolerance="10"
   objecttolerance="10"
   borderopacity="1"
   bordercolor="#666666"
   pagecolor="#ffffff" />
<g
   id="Base">
</g>
<g
   id="Layer_1">
	<path
   id="path11"
   d="M87,39c-3.6,0-6.4,5.4-6.4,12.2c0,6.7,2.3,11.4,5.6,12.5c3.7-1,7.7-6,7.7-12.2C93.8,44.5,91.4,39.1,87,39z"
   fill="#FFFFFF" />
	<path
   id="path13"
   d="M197.4,39.9c-5.7,0-7.6,5.8-7.8,8.1h15.8C205.3,44.5,203.3,39.9,197.4,39.9z"
   fill="#FFFFFF" />
	
	<path
   id="path17"
   d="M336.8,8.1L309,17l0-0.9c0-0.2,0-0.3,0-0.5c0-8.8-8-14.7-15.4-14.7c-9.4,0-15.2,7.6-15.2,14.7   c0,0.1,0,0.2,0,0.2l0.1,1.7l-0.9-1.2c-5.2-6.6-13.7-9.9-25.4-9.9h-35.4v18h5.2v20.8l-1-3.9c-0.2-0.7-0.3-1.2-0.5-1.7   c-3.6-10.3-14.2-17-27.2-17c-7.3,0-13.9,2.1-19.1,5.9l-0.8,0.6v-6.3h-35V3.9h-31.9V22h3.8v12.5l-0.9-1.2   c-5.6-7.3-14.5-11.5-25.2-11.6c-11.3,0-22,5.9-27.1,15.1l-0.7,1.3l-1.8-13.4l7.9-1L59.1,4l-45,6l3.3,19.7l7.8-1l5.4,40.5   c0.7,5.1,0.1,7.6-0.7,8.2l-0.1,0.1l-0.2,0c0,0-1.1,0.1-1.5,0.1c-2.8,0-3.9-1-4.5-1.8c-0.8-1-1.2-2.5-1.2-4.1c0-1.4,2-5.2,2.4-5.9   c0.3-1.3,0.3-2.6,0.1-3.9c-0.9-5-5.2-8.6-10.2-8.6c-0.6,0-1.2,0-1.7,0.1c-1.2,0.2-2.4,0.6-3.5,1.3c0,0-2.2,1.4-3.7,3.6   C2.7,62.9,1,68.2,1,73.7c0,14.2,13.1,26.4,28.7,26.4h0.1c5,0,11.4-1.8,11.5-1.8C54,94.5,60.4,85.6,60.5,72.2l0-1.2l1,1.1   c5.7,5.8,14.1,9.1,23.2,9.1c8.1,0,15.5-2.6,21-7.2l0.8-0.7v7.9h65.8v-5.9l0.8,0.7c5.3,4.4,12.3,6.9,19.7,6.9   c9.4,0,16.7-1.9,23.1-6.1l0.8-0.5V82h40.4V64h-5.7v-3.7h1.9c10.7,0,20.2-4.5,25.4-11.9l0.9-1.3V63h-3.9v18h36.5v-6l0.9,1.3   c3.1,4.3,8.3,6.4,16.1,6.4c2.2,0,9.4-0.6,13.2-2.1l3.3-1.3V56.1l-7.2,3c-0.3,0.1-0.7,0.3-1,0.4l-0.7,0.2l0-0.7c0-0.3,0-0.7,0-1   V42.2h8.9v-18h-8.9V8.1z M37.9,94c-1.1,0.4-2.3,0.6-3.5,0.8l0,0c-0.2,0-0.5,0-0.7,0c-0.8,0.1-3.2,0.1-4,0.1   C17.6,95,6.2,85.8,6.2,73.7c0-4.7,1.5-9.1,4-12.6c0.2-0.4,0.5-0.8,0.9-1.2c0,0,0,0,0,0c0.7-0.7,1.7-1.2,2.8-1.4   c2.8-0.5,5.5,1.4,6,4.3c0.3,1.7-0.3,3.3-1.3,4.4l0,0c-0.8,1.3-1.2,2.9-1.2,4.5c0,4.9,2.9,11.7,12.4,11c0.5,0,1.1-0.1,1.6-0.2l0-0.1   c3.7-1.2,5.7-5.2,4.5-14l-6.1-45.7l-7.9,1.1l-1.6-9.5l34.8-4.6l1.6,9.5l-7.7,1l6.1,45.7C56.9,80.5,52.4,90.3,37.9,94z M84.7,75.9   c-13.3,0-26.2-8.2-26-24.7c0.1-15.6,12.7-24.2,25.6-24.2c14.7,0.2,25.6,9,25.9,24.6C110.4,67,98.9,75.9,84.7,75.9z M167.2,75.9   h-27.6v-7.7h3.9l-7.1-14.6l-3.3,2.2v12.3h3.4v7.8h-24.9v-7.7h3.8V16.8h-3.8V9h21.5v39.1l15.6-12.1h-6.7v-7.8h26.1v7.8h-7.2   l-11.1,9.6l12.6,22.5h4.7V75.9z M163.4,57.2l0.3,2.5l-7.2-12.8l6.5-5.6h2l-0.2,0.7c-1.1,3.2-1.7,6.8-1.7,10.4   C163.1,54,163.2,55.5,163.4,57.2z M192.9,77.6c-11.6,0-24.6-7.4-24.6-25.3c0-15.3,11-24.3,25.1-24.3c11.1,0,19.6,5.7,22.3,13.5   c1.1,3.3,2.1,10.4,0.2,15.8h-27.1c0.6,2.5,1.8,7.6,9.6,7.6c3.2,0,5.7-0.3,10.7-4.5l7.8,9C210,75.5,202.5,77.6,192.9,77.6z    M253.4,55.2h-7.1v14h5.7v7.7h-30v-7.7h5.2V19.4h-5.2v-7.7h30.2c21.6,0,25.7,12.5,25.7,23.1C277.9,47.1,266.7,55.2,253.4,55.2z    M293.6,6.2c6.4,0,10.3,5.2,10.3,9.5c0,5.1-3.6,9.4-10.3,9.4c-5.9,0-10.1-4.9-10.1-9.4C283.6,11.4,287.1,6.2,293.6,6.2z    M307.1,75.9H281v-7.7h3.9V37H281v-7.7h21.6v38.9h4.5V75.9z M309.3,24.1h-2.8l0.5-0.8c0.6-0.9,1-1.9,1.4-3l1-3V24.1z M340.5,29.3   V37h-8.9v21c0,3.2-0.7,7.5,3,7.5c1.2,0,4.1-0.8,5.9-1.6v11.9c-2.8,1.1-9.1,1.8-11.3,1.8c-14,0-14.5-7.6-14.7-19.6V37h-5v-7.7h5   v-8.6l17.2-5.5v14.1H340.5z"
   fill="#FFFFFF" />
	<path
   id="path19"
   d="M252.9,23.8h-6.6v23h6c7.7,0,13-4,13-11C265.2,28,260.6,23.8,252.9,23.8z M252.2,41.6h-0.8V29h1.4   c5,0,7.1,2.1,7.1,6.9C260,38.5,258.7,41.6,252.2,41.6z"
   fill="#FFFFFF" />
	<path
   id="path21"
   d="M164.9,41.2h-2l-6.5,5.6l7.2,12.8l-0.3-2.5c-0.2-1.6-0.3-3.2-0.3-4.8c0-3.7,0.6-7.2,1.7-10.4L164.9,41.2z    M162.1,52.3c0,0.9,0,1.7,0.1,2.6l-4.4-7.8l5.6-4.8h0.2C162.6,45.4,162.1,48.8,162.1,52.3z"
   fill="#00609E" />
	<path
   id="path23"
   d="M307,23.4l-0.5,0.8h2.8v-6.7l-1,3C308,21.5,307.5,22.5,307,23.4z"
   fill="#00609E" />
	<path
   id="path25"
   d="M337.8,6.8l-27.7,8.9C310,6.3,301.6,0,293.6,0c-9.6,0-15.7,7.5-16.2,14.8c-5.4-6.1-13.9-9.2-25.3-9.2h-36.4   v20h5.2v12.7c-4.1-10-14.8-16.5-27.7-16.5c-7.2,0-13.7,1.9-18.9,5.6v-5.3h-35V2.9h-33.9V23h3.8v8.6c-5.8-6.9-14.6-10.7-25.1-10.9   c-11.2,0-21.7,5.6-27.2,14.4l-1.3-9.5l7.9-1.1L60,2.9L13,9.1l3.7,21.7l7.7-1l5.3,39.5c0.6,4.8,0.1,6.7-0.2,7.2   c-0.3,0-1,0.1-1.2,0.1c-2.4,0-3.3-0.8-3.7-1.4c-0.7-0.8-1-2.1-1-3.5c0-0.9,1.4-3.9,2.3-5.5l0-0.1c0.3-1.4,0.4-2.9,0.1-4.3   c-0.9-5.5-5.7-9.5-11.2-9.5c-0.6,0-1.3,0.1-1.9,0.2c-1.4,0.2-2.6,0.7-3.8,1.4c-0.1,0.1-2.4,1.5-4,4c-3.3,4.7-5,10.2-5,16   c0,14.8,13.6,27.3,29.7,27.4h0.1c5.1,0,11.5-1.7,11.8-1.8c12.8-4,19.5-12.7,19.9-26c5.9,5.5,14.3,8.7,23.3,8.7   c7.9,0,15.3-2.4,20.8-6.8v6.8h67.8v-4.8c5.4,4.2,12.3,6.4,19.5,6.4c9.2,0,16.5-1.8,22.9-5.8V83h42.4V63h-5.7v-1.7h0.9   c10.4,0,19.7-4.1,25.3-11.1V62h-3.9v20h38.5v-4c3.4,3.8,8.6,5.7,16,5.7c2.3,0,9.7-0.7,13.6-2.2l3.9-1.6V54.6l-8.6,3.6   c-0.1,0-0.2,0.1-0.3,0.1c0-0.1,0-0.2,0-0.3V43.2h8.9v-20h-8.9V6.8z M345.7,24.1v18h-8.9V58c0,0.3,0,0.7,0,1l0,0.7l0.7-0.2   c0.4-0.1,0.7-0.3,1-0.4l7.2-3v23.2l-3.3,1.3c-3.8,1.5-11,2.1-13.2,2.1c-7.7,0-13-2.1-16.1-6.4l-0.9-1.3v6h-36.5V63h3.9V47.1   l-0.9,1.3c-5.3,7.5-14.8,11.9-25.4,11.9h-1.9V64h5.7v18h-40.4v-5.9l-0.8,0.5c-6.4,4.2-13.8,6.1-23.1,6.1c-7.4,0-14.4-2.4-19.7-6.9   l-0.8-0.7v5.9h-65.8v-7.9l-0.8,0.7c-5.5,4.6-12.9,7.2-21,7.2c-9.1,0-17.5-3.3-23.2-9.1l-1-1.1l0,1.2C60.4,85.6,54,94.5,41.3,98.4   c-0.1,0-6.5,1.8-11.5,1.8h-0.1C14.1,100.1,1,88,1,73.7c0-5.5,1.7-10.8,4.8-15.4c1.5-2.3,3.6-3.6,3.7-3.6c1.1-0.6,2.2-1.1,3.5-1.3   c0.6-0.1,1.2-0.1,1.7-0.1c5.1,0,9.4,3.6,10.2,8.6c0.2,1.3,0.2,2.6-0.1,3.9c-0.4,0.7-2.4,4.5-2.4,5.9c0,1.6,0.5,3.1,1.2,4.1   c0.6,0.8,1.7,1.8,4.5,1.8c0.3,0,1.5-0.1,1.5-0.1l0.2,0l0.1-0.1c0.8-0.6,1.3-3.2,0.7-8.2l-5.4-40.5l-7.8,1L14.1,10l45-6l3.4,19.7   l-7.9,1l1.8,13.4l0.7-1.3c5.1-9.2,15.8-15.1,27.1-15.1c10.7,0.1,19.6,4.3,25.2,11.6l0.9,1.2V22h-3.8V3.9h31.9v19.2h35v6.3l0.8-0.6   c5.2-3.9,11.8-5.9,19.1-5.9c12.9,0,23.6,6.7,27.2,17c0.2,0.5,0.3,1.1,0.5,1.7l1,3.9V24.6h-5.2v-18h35.4c11.6,0,20.2,3.3,25.4,9.9   l0.9,1.2l-0.1-1.7c0-0.1,0-0.2,0-0.2c0-7.1,5.8-14.7,15.2-14.7c7.5,0,15.4,5.9,15.4,14.7c0,0.2,0,0.3,0,0.5l0,0.9l27.8-8.9v16   H345.7z"
   fill="#00609E" />
	<path
   id="path27"
   d="M252.2,11.7h-30.2v7.7h5.2v49.8h-5.2v7.7h30v-7.7h-5.7v-14h7.1c13.3,0,24.5-8,24.5-20.3   C277.9,24.2,273.8,11.7,252.2,11.7z M252.2,46.8h-6v-23h6.6c7.7,0,12.3,4.2,12.3,12C265.2,42.8,259.9,46.8,252.2,46.8z"
   fill="#FFFFFF" />
	<path
   id="path29"
   d="M252.2,11.7h-30.2v7.7h5.2v49.8h-5.2v7.7h30v-7.7h-5.7v-14h7.1c13.3,0,24.5-8,24.5-20.3   C277.9,24.2,273.8,11.7,252.2,11.7z M252.2,46.8h-6v-23h6.6c7.7,0,12.3,4.2,12.3,12C265.2,42.8,259.9,46.8,252.2,46.8z"
   fill="#00609E" />
	<path
   id="path31"
   d="M331.6,15.2l-17.2,5.5v8.6h-5V37h5v21c0.3,11.9,0.7,19.6,14.7,19.6c2.1,0,8.5-0.7,11.3-1.8V63.9   c-1.8,0.7-4.7,1.6-5.9,1.6c-3.6,0-3-4.3-3-7.5V37h8.9v-7.7h-8.9V15.2z"
   fill="#FFFFFF" />
	<path
   id="path33"
   d="M331.6,15.2l-17.2,5.5v8.6h-5V37h5v21c0.3,11.9,0.7,19.6,14.7,19.6c2.1,0,8.5-0.7,11.3-1.8V63.9   c-1.8,0.7-4.7,1.6-5.9,1.6c-3.6,0-3-4.3-3-7.5V37h8.9v-7.7h-8.9V15.2z"
   fill="#00609E" />
	<polygon
   id="polygon35"
   points="149.9,45.7 161.1,36.1 168.2,36.1 168.2,28.3 142.1,28.3 142.1,36.1 148.8,36.1 133.2,48.1   133.2,9 111.7,9 111.7,16.8 115.5,16.8 115.5,68.3 111.7,68.3 111.7,75.9 136.6,75.9 136.6,68.2 133.1,68.2 133.1,55.9 136.4,53.6   143.5,68.2 139.6,68.2 139.6,75.9 167.2,75.9 167.2,68.2 162.5,68.2  "
   fill="#FFFFFF" />
	<polygon
   id="polygon37"
   points="149.9,45.7 161.1,36.1 168.2,36.1 168.2,28.3 142.1,28.3 142.1,36.1 148.8,36.1 133.2,48.1   133.2,9 111.7,9 111.7,16.8 115.5,16.8 115.5,68.3 111.7,68.3 111.7,75.9 136.6,75.9 136.6,68.2 133.1,68.2 133.1,55.9 136.4,53.6   143.5,68.2 139.6,68.2 139.6,75.9 167.2,75.9 167.2,68.2 162.5,68.2  "
   fill="#00609E" />
	<polygon
   id="polygon39"
   points="302.6,29.3 281,29.3 281,37 284.9,37 284.9,68.2 281,68.2 281,75.9 307.1,75.9 307.1,68.2   302.6,68.2  "
   fill="#FFFFFF" />
	<polygon
   id="polygon41"
   points="302.6,29.3 281,29.3 281,37 284.9,37 284.9,68.2 281,68.2 281,75.9 307.1,75.9 307.1,68.2   302.6,68.2  "
   fill="#00609E" />
	<path
   id="path43"
   d="M198.3,64.9c-7.8,0-9-5.1-9.6-7.6h27.1c2-5.3,0.9-12.5-0.2-15.8c-2.7-7.8-11.2-13.5-22.3-13.5   c-14.1,0-25.1,9-25.1,24.3c0,17.9,13.1,25.3,24.6,25.3c9.7,0,17.2-2.1,24.1-8.1l-7.8-9C204,64.6,201.5,64.9,198.3,64.9z    M197.4,39.9c6,0,7.9,4.6,8,8.1h-15.8C189.7,45.7,191.7,39.9,197.4,39.9z"
   fill="#FFFFFF" />
	<path
   id="path45"
   d="M198.3,64.9c-7.8,0-9-5.1-9.6-7.6h27.1c2-5.3,0.9-12.5-0.2-15.8c-2.7-7.8-11.2-13.5-22.3-13.5   c-14.1,0-25.1,9-25.1,24.3c0,17.9,13.1,25.3,24.6,25.3c9.7,0,17.2-2.1,24.1-8.1l-7.8-9C204,64.6,201.5,64.9,198.3,64.9z    M197.4,39.9c6,0,7.9,4.6,8,8.1h-15.8C189.7,45.7,191.7,39.9,197.4,39.9z"
   fill="#00609E" />
	<path
   id="path47"
   d="M48.8,20.3l7.7-1l-1.6-9.5l-34.8,4.6l1.6,9.5l7.9-1.1l6.1,45.7c1.2,8.8-0.8,12.8-4.5,14l0,0.1   c-0.5,0.1-1.1,0.1-1.6,0.2c-9.5,0.8-12.4-6-12.4-11c0-1.7,0.5-3.2,1.2-4.5l0,0c1.1-1.1,1.6-2.7,1.3-4.4c-0.5-2.8-3.2-4.7-6-4.3   c-1.1,0.2-2,0.7-2.8,1.4c0,0,0,0,0,0c-0.4,0.4-0.6,0.8-0.9,1.2c-2.5,3.6-4,7.9-4,12.6C6.2,85.8,17.6,95,29.7,95   c0.8,0,3.2-0.1,4-0.1c0.2,0,0.5,0,0.7,0l0,0c1.2-0.2,2.4-0.4,3.5-0.8c14.5-3.7,19-13.5,17-28.1L48.8,20.3z"
   fill="#FFFFFF" />
	<path
   id="path49"
   d="M48.8,20.3l7.7-1l-1.6-9.5l-34.8,4.6l1.6,9.5l7.9-1.1l6.1,45.7c1.2,8.8-0.8,12.8-4.5,14l0,0.1   c-0.5,0.1-1.1,0.1-1.6,0.2c-9.5,0.8-12.4-6-12.4-11c0-1.7,0.5-3.2,1.2-4.5l0,0c1.1-1.1,1.6-2.7,1.3-4.4c-0.5-2.8-3.2-4.7-6-4.3   c-1.1,0.2-2,0.7-2.8,1.4c0,0,0,0,0,0c-0.4,0.4-0.6,0.8-0.9,1.2c-2.5,3.6-4,7.9-4,12.6C6.2,85.8,17.6,95,29.7,95   c0.8,0,3.2-0.1,4-0.1c0.2,0,0.5,0,0.7,0l0,0c1.2-0.2,2.4-0.4,3.5-0.8c14.5-3.7,19-13.5,17-28.1L48.8,20.3z"
   fill="#00609E" />
	<path
   id="path51"
   d="M84.3,26.9c-12.9,0-25.5,8.7-25.6,24.2c-0.2,16.5,12.7,24.7,26,24.7c14.2,0,25.6-8.9,25.5-24.3   C109.9,36,99,27.1,84.3,26.9z M86.1,63.7c-3.2-1-5.6-5.7-5.6-12.5c0-6.8,2.8-12.2,6.4-12.2c4.4,0.1,6.8,5.5,6.8,12.5   C93.8,57.7,89.8,62.7,86.1,63.7z"
   fill="#FFFFFF" />
	<path
   id="path53"
   d="M84.3,26.9c-12.9,0-25.5,8.7-25.6,24.2c-0.2,16.5,12.7,24.7,26,24.7c14.2,0,25.6-8.9,25.5-24.3   C109.9,36,99,27.1,84.3,26.9z M86.1,63.7c-3.2-1-5.6-5.7-5.6-12.5c0-6.8,2.8-12.2,6.4-12.2c4.4,0.1,6.8,5.5,6.8,12.5   C93.8,57.7,89.8,62.7,86.1,63.7z"
   fill="#00609E" />
	<path
   id="path55"
   d="M293.6,25.1c6.6,0,10.3-4.3,10.3-9.4c0-4.3-3.8-9.5-10.3-9.5c-6.5,0-10.1,5.2-10.1,9.5   C283.6,20.2,287.8,25.1,293.6,25.1z"
   fill="#FFFFFF" />
	<path
   id="path57"
   d="M293.6,25.1c6.6,0,10.3-4.3,10.3-9.4c0-4.3-3.8-9.5-10.3-9.5c-6.5,0-10.1,5.2-10.1,9.5   C283.6,20.2,287.8,25.1,293.6,25.1z"
   fill="#00609E" />
</g>
</svg>
